<svg width="768.928" height="130.051" fill="none" xmlns="http://www.w3.org/2000/svg"><path fill-rule="evenodd" clip-rule="evenodd" d="M768.928 5.9V.404h-1.792l-1.677 3.739-1.684-3.74h-1.821V5.9h1.46V2.713l1.424 3.186h1.183l1.424-3.202v3.202zm-9.743 0V1.725h2.045V.403h-5.704v1.323h2.043V5.9Zm-136.32 82.697v32.923l96.534-56.494-61.862-36.203h82.971V.402H622.864v41.052l40.279 23.572zM289.163 55.971h-24.263v9.055c0 20.109-16.287 36.41-36.378 36.41-20.09 0-36.377-16.303-36.377-36.41 0-20.11 16.287-36.41 36.377-36.41h9.046V4.331A4.33 4.33 0 0 0 233.242 0h-4.72c-35.879 0-64.966 29.114-64.966 65.026 0 35.912 29.087 65.025 64.967 65.025 35.88 0 64.968-29.113 64.968-65.025v-4.723a4.33 4.33 0 0 0-4.327-4.332zm131.67 73.679h28.395V.403h-28.395ZM501.356.403h-32.897l29.465 55.971h25.696c3.257 0 5.347-3.463 3.83-6.35L501.356.406Zm35.213 129.247L604.764.402h-32.891L520.132 98.46ZM101.549.405 71.284 52.214 41.014.406H0v129.245h28.395V35.107l42.888 73.414L134.44.403H101.55Zm12.607 129.245h28.395V56.374h-24.068a4.33 4.33 0 0 0-4.327 4.334zm217.351 0h28.395V28.823h38.152V.402h-104.7v28.42h38.153zm346.513-24.09a4.33 4.33 0 0 1 4.33-4.33h58.158v28.42H678.02Z" fill="#000" style="stroke-width:1.62564"/></svg>